<svg width="19" height="18" viewBox="0 0 19 18" fill="none" xmlns="http://www.w3.org/2000/svg">
<rect width="19" height="18" fill="#B3B3B3"/>
<g id="Global Search">
<rect width="1728" height="1582" transform="translate(-1022 -402)" fill="white"/>
<g id="app-root &#226;&#134;&#146; app-full-layout">
<rect width="1459" height="1579" transform="translate(-754 -399)" fill="#F4F4F4"/>
<g id="ng-component">
<g id="ng-component_2">
<g clip-path="url(#clip0_1_959)">
<rect x="-655" y="-237" width="1261" height="1361" rx="4" fill="white"/>
<g id="app-rpb">
<rect width="1238" height="1458" transform="translate(-637 -221)" fill="white"/>
<g id="Frame 110">
<g id="Frame 441">
<g id="Frame 436">
<g id="Frame 431">
<g id="Frame 421">
<g id="Frame 419">
<g id="Frame 653">
<g id="uis:calender">
<rect x="0.5" width="18" height="18" rx="4" fill="#2962FF" fill-opacity="0.1"/>
<path id="Vector" d="M6 11.8C6 12.48 6.52 13 7.2 13H12.8C13.48 13 14 12.48 14 11.8V8.6H6V11.8ZM12.8 5.8H12V5.4C12 5.16 11.84 5 11.6 5C11.36 5 11.2 5.16 11.2 5.4V5.8H8.8V5.4C8.8 5.16 8.64 5 8.4 5C8.16 5 8 5.16 8 5.4V5.8H7.2C6.52 5.8 6 6.32 6 7V7.8H14V7C14 6.32 13.48 5.8 12.8 5.8Z" fill="black"/>
</g>
</g>
</g>
</g>
</g>
<path d="M-8.5 1105V-52H-10.5V1105H-8.5Z" fill="#EFEFEF" mask="url(#path-3-inside-1_1_959)"/>
</g>
<rect x="-630.45" y="-51.95" width="1224.9" height="1156.9" rx="9.95" stroke="#A3A3A3" stroke-width="0.1"/>
</g>
</g>
</g>
</g>
</g>
</g>
</g>
</g>
<defs>
<clipPath id="clip0_1_959">
<rect x="-655" y="-237" width="1261" height="1361" rx="4" fill="white"/>
</clipPath>
</defs>
</svg>
