<svg width="19" height="18" viewBox="0 0 19 18" fill="none" xmlns="http://www.w3.org/2000/svg">
<rect x="0.5" width="18" height="18" rx="4" fill="#F99B00" fill-opacity="0.2"/>
<path d="M10 13C7.7908 13 6 11.2092 6 9C6 6.7908 7.7908 5 10 5C12.2092 5 14 6.7908 14 9C14 11.2092 12.2092 13 10 13ZM10 12.2C10.8487 12.2 11.6626 11.8629 12.2627 11.2627C12.8629 10.6626 13.2 9.84869 13.2 9C13.2 8.15131 12.8629 7.33737 12.2627 6.73726C11.6626 6.13714 10.8487 5.8 10 5.8C9.15131 5.8 8.33737 6.13714 7.73726 6.73726C7.13714 7.33737 6.8 8.15131 6.8 9C6.8 9.84869 7.13714 10.6626 7.73726 11.2627C8.33737 11.8629 9.15131 12.2 10 12.2ZM10.4 9H12V9.8H9.6V7H10.4V9Z" fill="black"/>
</svg>
