<svg width="24" height="25" viewBox="0 0 24 25" fill="none" xmlns="http://www.w3.org/2000/svg">
<path d="M17.1667 7.33333H16.5V6H15.1667V7.33333H9.83333V6H8.5V7.33333H7.83333C7.1 7.33333 6.5 7.93333 6.5 8.66667V18C6.5 18.7333 7.1 19.3333 7.83333 19.3333H9.83333L8.5 18H7.83333V11.3333H17.1667V18H16.5L15.1667 19.3333H17.1667C17.9 19.3333 18.5 18.7333 18.5 18V8.66667C18.5 7.93333 17.9 7.33333 17.1667 7.33333ZM7.83333 10V8.66667H17.1667V10H7.83333ZM13.1667 17.3333V13.3333H11.8333V17.3333H9.83333L12.5 20L15.1667 17.3333H13.1667Z" fill="#FB8C00"/>
<rect x="0.25" y="0.75" width="23.5" height="23.5" rx="1.75" stroke="#989898" stroke-width="0.5"/>
</svg>
