<svg width="18" height="17" viewBox="0 0 18 17" fill="none" xmlns="http://www.w3.org/2000/svg">
<g id="fluent:data-trending-24-filled">
<path id="Vector" d="M4.04167 2.83333C4.04167 2.64547 3.96704 2.4653 3.8342 2.33247C3.70136 2.19963 3.52119 2.125 3.33333 2.125C3.14547 2.125 2.9653 2.19963 2.83247 2.33247C2.69963 2.4653 2.625 2.64547 2.625 2.83333V12.3958C2.625 13.0533 2.8862 13.6839 3.35113 14.1489C3.81607 14.6138 4.44665 14.875 5.10417 14.875H14.6667C14.8545 14.875 15.0347 14.8004 15.1675 14.6675C15.3004 14.5347 15.375 14.3545 15.375 14.1667C15.375 13.9788 15.3004 13.7986 15.1675 13.6658C15.0347 13.533 14.8545 13.4583 14.6667 13.4583H5.10417C4.82237 13.4583 4.55212 13.3464 4.35287 13.1471C4.15361 12.9479 4.04167 12.6776 4.04167 12.3958V2.83333ZM11.125 4.25C10.9371 4.25 10.757 4.32463 10.6241 4.45747C10.4913 4.5903 10.4167 4.77047 10.4167 4.95833C10.4167 5.14619 10.4913 5.32636 10.6241 5.4592C10.757 5.59204 10.9371 5.66667 11.125 5.66667H12.6026L9.88542 8.38383L8.61537 7.11379C8.48254 6.981 8.30241 6.9064 8.11458 6.9064C7.92676 6.9064 7.74662 6.981 7.61379 7.11379L5.31171 9.41587C5.24406 9.48122 5.19009 9.55938 5.15297 9.6458C5.11585 9.73222 5.09631 9.82516 5.09549 9.91922C5.09467 10.0133 5.11259 10.1065 5.14821 10.1936C5.18383 10.2806 5.23642 10.3597 5.30293 10.4262C5.36944 10.4927 5.44852 10.5453 5.53557 10.581C5.62263 10.6166 5.7159 10.6345 5.80995 10.6337C5.904 10.6329 5.99695 10.6133 6.08337 10.5762C6.16979 10.5391 6.24795 10.4851 6.31329 10.4175L8.11458 8.61617L9.38462 9.88621C9.51746 10.019 9.69759 10.0936 9.88542 10.0936C10.0732 10.0936 10.2534 10.019 10.3862 9.88621L13.6049 6.66825L13.6042 8.14583C13.6042 8.33369 13.6788 8.51386 13.8116 8.6467C13.9445 8.77954 14.1246 8.85417 14.3125 8.85417C14.5004 8.85417 14.6805 8.77954 14.8134 8.6467C14.9462 8.51386 15.0208 8.33369 15.0208 8.14583L15.0223 4.95833C15.0223 4.77047 14.9476 4.5903 14.8148 4.45747C14.6819 4.32463 14.5018 4.25 14.3139 4.25H11.125Z" fill="white"/>
</g>
</svg>
