<svg width="16" height="16" viewBox="0 0 16 16" fill="none" xmlns="http://www.w3.org/2000/svg">
<g id="teenyicons:360-outline" clip-path="url(#clip0_1919_21073)">
<path id="Vector" d="M5.01599 6L5.41599 6.3C5.4717 6.22572 5.50563 6.13739 5.51397 6.04491C5.52231 5.95243 5.50473 5.85945 5.4632 5.7764C5.42168 5.69334 5.35784 5.6235 5.27886 5.57468C5.19987 5.52586 5.10885 5.5 5.01599 5.5V6ZM3.51599 8L3.11599 7.7C3.06028 7.77429 3.02635 7.86262 3.01801 7.9551C3.00967 8.04758 3.02725 8.14056 3.06878 8.22361C3.1103 8.30666 3.17414 8.37651 3.25313 8.42533C3.33211 8.47415 3.42314 8.5 3.51599 8.5V8ZM2.51599 6.5H5.01599V5.5H2.51599V6.5ZM4.61599 5.7L3.11599 7.7L3.91599 8.3L5.41599 6.3L4.61599 5.7ZM3.51599 8.5H4.01599V7.5H3.51599V8.5ZM4.01599 9.5H2.51599V10.5H4.01599V9.5ZM4.51599 9C4.51599 9.13261 4.46331 9.25979 4.36954 9.35356C4.27578 9.44733 4.1486 9.5 4.01599 9.5V10.5C4.41382 10.5 4.79535 10.342 5.07665 10.0607C5.35796 9.77936 5.51599 9.39783 5.51599 9H4.51599ZM4.01599 8.5C4.1486 8.5 4.27578 8.55268 4.36954 8.64645C4.46331 8.74022 4.51599 8.8674 4.51599 9H5.51599C5.51599 8.60218 5.35796 8.22065 5.07665 7.93934C4.79535 7.65804 4.41382 7.5 4.01599 7.5V8.5ZM8.51599 5.5H8.01599V6.5H8.51599V5.5ZM6.51599 7V8H7.51599V7H6.51599ZM6.51599 8V9H7.51599V8H6.51599ZM8.01599 7.5H7.01599V8.5H8.01599V7.5ZM9.51599 9C9.51599 8.60218 9.35796 8.22065 9.07665 7.93934C8.79535 7.65804 8.41382 7.5 8.01599 7.5V8.5C8.1486 8.5 8.27578 8.55268 8.36954 8.64645C8.46331 8.74022 8.51599 8.8674 8.51599 9H9.51599ZM8.01599 10.5C8.41382 10.5 8.79535 10.342 9.07665 10.0607C9.35796 9.77936 9.51599 9.39783 9.51599 9H8.51599C8.51599 9.13261 8.46331 9.25979 8.36954 9.35356C8.27578 9.44733 8.1486 9.5 8.01599 9.5V10.5ZM8.01599 9.5C7.88338 9.5 7.75621 9.44733 7.66244 9.35356C7.56867 9.25979 7.51599 9.13261 7.51599 9H6.51599C6.51599 9.39783 6.67403 9.77936 6.95533 10.0607C7.23664 10.342 7.61817 10.5 8.01599 10.5V9.5ZM8.01599 5.5C7.61817 5.5 7.23664 5.65804 6.95533 5.93934C6.67403 6.22065 6.51599 6.60218 6.51599 7H7.51599C7.51599 6.8674 7.56867 6.74022 7.66244 6.64645C7.75621 6.55268 7.88338 6.5 8.01599 6.5V5.5ZM12.516 7V9H13.516V7H12.516ZM11.516 9V7H10.516V9H11.516ZM12.016 9.5C11.8834 9.5 11.7562 9.44733 11.6624 9.35356C11.5687 9.25979 11.516 9.13261 11.516 9H10.516C10.516 9.39783 10.674 9.77936 10.9553 10.0607C11.2366 10.342 11.6182 10.5 12.016 10.5V9.5ZM12.516 9C12.516 9.13261 12.4633 9.25979 12.3695 9.35356C12.2758 9.44733 12.1486 9.5 12.016 9.5V10.5C12.4138 10.5 12.7953 10.342 13.0767 10.0607C13.358 9.77936 13.516 9.39783 13.516 9H12.516ZM12.016 6.5C12.1486 6.5 12.2758 6.55268 12.3695 6.64645C12.4633 6.74022 12.516 6.8674 12.516 7H13.516C13.516 6.60218 13.358 6.22065 13.0767 5.93934C12.7953 5.65804 12.4138 5.5 12.016 5.5V6.5ZM12.016 5.5C11.6182 5.5 11.2366 5.65804 10.9553 5.93934C10.674 6.22065 10.516 6.60218 10.516 7H11.516C11.516 6.8674 11.5687 6.74022 11.6624 6.64645C11.7562 6.55268 11.8834 6.5 12.016 6.5V5.5ZM8.01599 14.5C6.29208 14.5 4.63878 13.8152 3.4198 12.5962C2.20081 11.3772 1.51599 9.72391 1.51599 8H0.515991C0.515991 9.98913 1.30617 11.8968 2.71269 13.3033C4.11921 14.7098 6.02687 15.5 8.01599 15.5V14.5ZM14.516 8C14.516 8.8536 14.3479 9.69883 14.0212 10.4874C13.6946 11.2761 13.2158 11.9926 12.6122 12.5962C12.0086 13.1998 11.292 13.6786 10.5034 14.0052C9.71482 14.3319 8.86958 14.5 8.01599 14.5V15.5C10.0051 15.5 11.9128 14.7098 13.3193 13.3033C14.7258 11.8968 15.516 9.98913 15.516 8H14.516ZM8.01599 0.500004C6.02687 0.500004 4.11921 1.29018 2.71269 2.6967C1.30617 4.10323 0.515991 6.01088 0.515991 8H1.51599C1.51599 6.2761 2.20081 4.6228 3.4198 3.40381C4.63878 2.18482 6.29208 1.5 8.01599 1.5V0.500004ZM14.016 3.5C14.1486 3.5 14.2758 3.55268 14.3695 3.64645C14.4633 3.74022 14.516 3.8674 14.516 4H15.516C15.516 3.60218 15.358 3.22065 15.0767 2.93934C14.7953 2.65804 14.4138 2.5 14.016 2.5V3.5ZM14.016 4.5C13.8834 4.5 13.7562 4.44733 13.6624 4.35356C13.5687 4.25979 13.516 4.13261 13.516 4H12.516C12.516 4.39783 12.674 4.77936 12.9553 5.06066C13.2366 5.34197 13.6182 5.5 14.016 5.5V4.5ZM13.516 4C13.516 3.877 13.56 3.765 13.634 3.677L12.871 3.031C12.65 3.292 12.516 3.631 12.516 4H13.516ZM13.634 3.677C13.6809 3.62139 13.7394 3.57673 13.8054 3.54615C13.8714 3.51557 13.9433 3.49982 14.016 3.5V2.5C13.556 2.5 13.145 2.707 12.871 3.031L13.634 3.677ZM8.01599 1.5C9.94999 1.5 11.687 2.344 12.878 3.686L13.626 3.022C12.923 2.22814 12.0593 1.59275 11.0921 1.15795C10.1249 0.723159 9.0764 0.498888 8.01599 0.500004V1.5ZM13.87 5.17C14.284 6.026 14.516 6.985 14.516 8H15.516C15.516 6.83 15.248 5.723 14.77 4.735L13.87 5.17ZM14.516 4C14.5161 4.10616 14.4825 4.2096 14.4199 4.29536C14.3574 4.38111 14.2691 4.44473 14.168 4.477L14.472 5.429C14.7751 5.3323 15.0395 5.14174 15.2272 4.88487C15.4149 4.628 15.516 4.31812 15.516 4H14.516ZM14.168 4.477C14.1188 4.49246 14.0675 4.50022 14.016 4.5V5.5C14.1707 5.50033 14.3245 5.47571 14.472 5.429L14.168 4.477Z" fill="black"/>
</g>
<defs>
<clipPath id="clip0_1919_21073">
<rect width="15" height="15" fill="white" transform="translate(0.515991 0.5)"/>
</clipPath>
</defs>
</svg>
