<svg width="13" height="15" viewBox="0 0 13 15" fill="none" xmlns="http://www.w3.org/2000/svg">
<path d="M7.03123 3.28906C6.82403 3.28906 6.62531 3.3796 6.4788 3.54077C6.33229 3.70193 6.24998 3.92052 6.24998 4.14844C6.24998 4.37636 6.33229 4.59494 6.4788 4.75611C6.62531 4.91727 6.82403 5.00781 7.03123 5.00781C7.23843 5.00781 7.43714 4.91727 7.58366 4.75611C7.73017 4.59494 7.81248 4.37636 7.81248 4.14844C7.81248 3.92052 7.73017 3.70193 7.58366 3.54077C7.43714 3.3796 7.23843 3.28906 7.03123 3.28906ZM6.84373 6.02188C6.22394 6.07917 4.53123 7.56302 4.53123 7.56302C4.42706 7.64896 4.45831 7.64323 4.54165 7.80365C4.62498 7.95833 4.61456 7.96979 4.71352 7.89531C4.81769 7.82083 4.98956 7.70052 5.27602 7.50573C6.38019 6.72656 5.4531 8.52552 4.97915 11.5563C4.79165 13.0573 6.02081 12.2839 6.33852 12.0547C6.65102 11.8313 7.48956 11.1953 7.5729 11.1323C7.68748 11.0464 7.60415 10.9776 7.5156 10.8344C7.4531 10.737 7.3906 10.8057 7.3906 10.8057C7.05206 11.0521 6.43227 11.5677 6.34894 11.2411C6.24998 10.9146 6.8854 8.67448 7.23435 7.13333C7.29165 6.76667 7.4479 5.96458 6.84373 6.02188Z" fill="white"/>
</svg>
