<svg width="25" height="24" viewBox="0 0 25 24" fill="none" xmlns="http://www.w3.org/2000/svg">
<rect width="25" height="24" fill="#B3B3B3"/>
<g id="Business Insights">
<rect width="1728" height="1233" transform="translate(-1551 -232)" fill="white"/>
<g id="app-root &#226;&#134;&#146; app-full-layout">
<rect width="1459" height="1233" transform="translate(-1282 -232)" fill="#F4F4F4"/>
<g id="ng-component" filter="url(#filter0_d_1_959)">
<rect x="-1183" y="-70" width="1261" height="919" rx="4" fill="white" shape-rendering="crispEdges"/>
<g id="Frame 421" filter="url(#filter1_d_1_959)">
<rect x="-1155" y="-40" width="1218" height="852" rx="10" fill="white" shape-rendering="crispEdges"/>
<g id="Frame 421_2">
<g id="Frame 420">
<g id="Frame 420_2">
<rect x="-63" y="-9.5" width="102" height="43" rx="4.5" fill="#0747A6"/>
<g id="ph:export-fill">
<path id="Vector" d="M13.25 8.99961H11.75V4.05993L9.28063 6.53024C9.13989 6.67097 8.94902 6.75003 8.75 6.75003C8.55098 6.75003 8.36011 6.67097 8.21938 6.53024C8.07864 6.38951 7.99958 6.19864 7.99958 5.99961C7.99958 5.80059 8.07864 5.60972 8.21937 5.46899L11.9694 1.71899C12.039 1.64926 12.1217 1.59394 12.2128 1.55619C12.3038 1.51845 12.4014 1.49902 12.5 1.49902C12.5986 1.49902 12.6962 1.51845 12.7872 1.55619C12.8783 1.59394 12.961 1.64926 13.0306 1.71899L16.7806 5.46899C16.9214 5.60972 17.0004 5.80059 17.0004 5.99961C17.0004 6.19864 16.9214 6.38951 16.7806 6.53024C16.6399 6.67097 16.449 6.75003 16.25 6.75003C16.051 6.75003 15.8601 6.67097 15.7194 6.53024L13.25 4.05993V8.99961ZM19.25 8.99961H13.25V12.7496C13.25 12.9485 13.171 13.1393 13.0303 13.2799C12.8897 13.4206 12.6989 13.4996 12.5 13.4996C12.3011 13.4996 12.1103 13.4206 11.9697 13.2799C11.829 13.1393 11.75 12.9485 11.75 12.7496V8.99961H5.75C5.35218 8.99961 4.97064 9.15765 4.68934 9.43895C4.40804 9.72026 4.25 10.1018 4.25 10.4996V19.4996C4.25 19.8974 4.40804 20.279 4.68934 20.5603C4.97064 20.8416 5.35218 20.9996 5.75 20.9996H19.25C19.6478 20.9996 20.0294 20.8416 20.3107 20.5603C20.592 20.279 20.75 19.8974 20.75 19.4996V10.4996C20.75 10.1018 20.592 9.72026 20.3107 9.43895C20.0294 9.15765 19.6478 8.99961 19.25 8.99961Z" fill="white"/>
</g>
<rect x="-63" y="-9.5" width="102" height="43" rx="4.5" stroke="#6A6A6A"/>
</g>
</g>
</g>
</g>
</g>
</g>
</g>
<defs>
<filter id="filter0_d_1_959" x="-1191" y="-78" width="1277" height="935" filterUnits="userSpaceOnUse" color-interpolation-filters="sRGB">
<feFlood flood-opacity="0" result="BackgroundImageFix"/>
<feColorMatrix in="SourceAlpha" type="matrix" values="0 0 0 0 0 0 0 0 0 0 0 0 0 0 0 0 0 0 127 0" result="hardAlpha"/>
<feOffset/>
<feGaussianBlur stdDeviation="4"/>
<feComposite in2="hardAlpha" operator="out"/>
<feColorMatrix type="matrix" values="0 0 0 0 0 0 0 0 0 0 0 0 0 0 0 0 0 0 0.09 0"/>
<feBlend mode="normal" in2="BackgroundImageFix" result="effect1_dropShadow_1_959"/>
<feBlend mode="normal" in="SourceGraphic" in2="effect1_dropShadow_1_959" result="shape"/>
</filter>
<filter id="filter1_d_1_959" x="-1163" y="-48" width="1234" height="868" filterUnits="userSpaceOnUse" color-interpolation-filters="sRGB">
<feFlood flood-opacity="0" result="BackgroundImageFix"/>
<feColorMatrix in="SourceAlpha" type="matrix" values="0 0 0 0 0 0 0 0 0 0 0 0 0 0 0 0 0 0 127 0" result="hardAlpha"/>
<feOffset/>
<feGaussianBlur stdDeviation="4"/>
<feComposite in2="hardAlpha" operator="out"/>
<feColorMatrix type="matrix" values="0 0 0 0 0 0 0 0 0 0 0 0 0 0 0 0 0 0 0.07 0"/>
<feBlend mode="normal" in2="BackgroundImageFix" result="effect1_dropShadow_1_959"/>
<feBlend mode="normal" in="SourceGraphic" in2="effect1_dropShadow_1_959" result="shape"/>
</filter>
</defs>
</svg>
