<svg width="22" height="24" viewBox="0 0 22 24" fill="none" xmlns="http://www.w3.org/2000/svg">
<path id="Vector" d="M2.998 9V1H17.5L21 4.5V23H14M16 1V6H21M6 17C5.60603 17 5.21593 16.9224 4.85195 16.7716C4.48797 16.6209 4.15726 16.3999 3.87868 16.1213C3.6001 15.8427 3.37913 15.512 3.22836 15.1481C3.0776 14.7841 3 14.394 3 14C3 13.606 3.0776 13.2159 3.22836 12.8519C3.37913 12.488 3.6001 12.1573 3.87868 11.8787C4.15726 11.6001 4.48797 11.3791 4.85195 11.2284C5.21593 11.0776 5.60603 11 6 11C6.79565 11 7.55871 11.3161 8.12132 11.8787C8.68393 12.4413 9 13.2044 9 14C9 14.7956 8.68393 15.5587 8.12132 16.1213C7.55871 16.6839 6.79565 17 6 17ZM6 17C4 17 1 18 1 22V23H11V22C11 18 8 17 6 17Z" stroke="#07A14E" stroke-width="2"/>
</svg>
