<svg width="15" height="16" viewBox="0 0 15 16" fill="none" xmlns="http://www.w3.org/2000/svg">
<path d="M7.5 2.36071C6.69416 2.36071 5.89621 2.51943 5.15172 2.82781C4.40722 3.13619 3.73075 3.58819 3.16094 4.15801C2.59112 4.72782 2.13912 5.40429 1.83074 6.14879C1.52236 6.89328 1.36364 7.69123 1.36364 8.49707C1.36364 9.30291 1.52236 10.1009 1.83074 10.8454C2.13912 11.5899 2.59112 12.2663 3.16094 12.8361C3.73075 13.4059 4.40722 13.858 5.15172 14.1663C5.89621 14.4747 6.69416 14.6334 7.5 14.6334C9.12747 14.6334 10.6883 13.9869 11.8391 12.8361C12.9899 11.6853 13.6364 10.1245 13.6364 8.49707C13.6364 6.86961 12.9899 5.3088 11.8391 4.15801C10.6883 3.00721 9.12747 2.36071 7.5 2.36071ZM0 8.49707C0 4.35503 3.35795 0.99707 7.5 0.99707C11.642 0.99707 15 4.35503 15 8.49707C15 12.6391 11.642 15.9971 7.5 15.9971C3.35795 15.9971 0 12.6391 0 8.49707ZM8.18182 3.26957V4.07889C9.1207 4.22413 9.98894 4.66456 10.6607 5.33634C11.3325 6.00813 11.7729 6.87637 11.9182 7.81525H12.7275V9.17889H11.9182C11.7729 10.1178 11.3325 10.986 10.6607 11.6578C9.98894 12.3296 9.1207 12.77 8.18182 12.9153V13.7246H6.81818V12.9153C5.8793 12.77 5.01106 12.3296 4.33927 11.6578C3.66749 10.986 3.22706 10.1178 3.08182 9.17889H2.2725V7.81525H3.08182C3.22706 6.87637 3.66749 6.00813 4.33927 5.33634C5.01106 4.66456 5.8793 4.22413 6.81818 4.07889V3.26957H8.18182ZM7.5 5.39071C7.09207 5.39071 6.68813 5.47106 6.31125 5.62716C5.93436 5.78327 5.59192 6.01209 5.30347 6.30054C5.01502 6.58899 4.7862 6.93144 4.63009 7.30832C4.47398 7.6852 4.39364 8.08914 4.39364 8.49707C4.39364 8.905 4.47398 9.30894 4.63009 9.68582C4.7862 10.0627 5.01502 10.4051 5.30347 10.6936C5.59192 10.9821 5.93436 11.2109 6.31125 11.367C6.68813 11.5231 7.09207 11.6034 7.5 11.6034C8.32386 11.6034 9.11397 11.2762 9.69653 10.6936C10.2791 10.111 10.6064 9.32093 10.6064 8.49707C10.6064 7.67321 10.2791 6.8831 9.69653 6.30054C9.11397 5.71798 8.32386 5.39071 7.5 5.39071ZM7.5 8.42139C7.49006 8.42139 7.48022 8.42335 7.47104 8.42715C7.46186 8.43095 7.45351 8.43653 7.44648 8.44355C7.43946 8.45058 7.43388 8.45893 7.43008 8.46811C7.42628 8.47729 7.42432 8.48713 7.42432 8.49707C7.42432 8.50701 7.42628 8.51685 7.43008 8.52603C7.43388 8.53521 7.43946 8.54356 7.44648 8.55059C7.45351 8.55761 7.46186 8.56319 7.47104 8.56699C7.48022 8.57079 7.49006 8.57275 7.5 8.57275C7.52007 8.57275 7.53932 8.56478 7.55352 8.55059C7.56771 8.53639 7.57568 8.51714 7.57568 8.49707C7.57568 8.477 7.56771 8.45775 7.55352 8.44355C7.53932 8.42936 7.52007 8.42139 7.5 8.42139ZM6.06068 8.49707C6.06068 8.11534 6.21232 7.74924 6.48225 7.47932C6.75217 7.20939 7.11827 7.05775 7.5 7.05775C7.88173 7.05775 8.24783 7.20939 8.51775 7.47932C8.78768 7.74924 8.93932 8.11534 8.93932 8.49707C8.93932 8.8788 8.78768 9.2449 8.51775 9.51482C8.24783 9.78475 7.88173 9.93639 7.5 9.93639C7.11827 9.93639 6.75217 9.78475 6.48225 9.51482C6.21232 9.2449 6.06068 8.8788 6.06068 8.49707Z" fill="white" fill-opacity="0.87"/>
</svg>
