<svg width="15" height="16" viewBox="0 0 15 16" fill="none" xmlns="http://www.w3.org/2000/svg">
<path d="M4.5 6.49707L4.9 6.79707C4.95571 6.72279 4.98964 6.63446 4.99798 6.54198C5.00632 6.4495 4.98874 6.35652 4.94721 6.27347C4.90569 6.19041 4.84185 6.12057 4.76287 6.07175C4.68388 6.02293 4.59286 5.99707 4.5 5.99707V6.49707ZM3 8.49707L2.6 8.19707C2.54429 8.27136 2.51036 8.35969 2.50202 8.45217C2.49368 8.54465 2.51126 8.63763 2.55279 8.72068C2.59431 8.80373 2.65815 8.87358 2.73713 8.9224C2.81612 8.97122 2.90714 8.99707 3 8.99707V8.49707ZM2 6.99707H4.5V5.99707H2V6.99707ZM4.1 6.19707L2.6 8.19707L3.4 8.79707L4.9 6.79707L4.1 6.19707ZM3 8.99707H3.5V7.99707H3V8.99707ZM3.5 9.99707H2V10.9971H3.5V9.99707ZM4 9.49707C4 9.62968 3.94732 9.75686 3.85355 9.85063C3.75979 9.9444 3.63261 9.99707 3.5 9.99707V10.9971C3.89782 10.9971 4.27936 10.839 4.56066 10.5577C4.84196 10.2764 5 9.8949 5 9.49707H4ZM3.5 8.99707C3.63261 8.99707 3.75979 9.04975 3.85355 9.14352C3.94732 9.23729 4 9.36447 4 9.49707H5C5 9.09925 4.84196 8.71772 4.56066 8.43641C4.27936 8.15511 3.89782 7.99707 3.5 7.99707V8.99707ZM8 5.99707H7.5V6.99707H8V5.99707ZM6 7.49707V8.49707H7V7.49707H6ZM6 8.49707V9.49707H7V8.49707H6ZM7.5 7.99707H6.5V8.99707H7.5V7.99707ZM9 9.49707C9 9.09925 8.84196 8.71772 8.56066 8.43641C8.27936 8.15511 7.89782 7.99707 7.5 7.99707V8.99707C7.63261 8.99707 7.75979 9.04975 7.85355 9.14352C7.94732 9.23729 8 9.36447 8 9.49707H9ZM7.5 10.9971C7.89782 10.9971 8.27936 10.839 8.56066 10.5577C8.84196 10.2764 9 9.8949 9 9.49707H8C8 9.62968 7.94732 9.75686 7.85355 9.85063C7.75979 9.9444 7.63261 9.99707 7.5 9.99707V10.9971ZM7.5 9.99707C7.36739 9.99707 7.24021 9.9444 7.14645 9.85063C7.05268 9.75686 7 9.62968 7 9.49707H6C6 9.8949 6.15804 10.2764 6.43934 10.5577C6.72064 10.839 7.10218 10.9971 7.5 10.9971V9.99707ZM7.5 5.99707C7.10218 5.99707 6.72064 6.15511 6.43934 6.43641C6.15804 6.71772 6 7.09925 6 7.49707H7C7 7.36447 7.05268 7.23729 7.14645 7.14352C7.24021 7.04975 7.36739 6.99707 7.5 6.99707V5.99707ZM12 7.49707V9.49707H13V7.49707H12ZM11 9.49707V7.49707H10V9.49707H11ZM11.5 9.99707C11.3674 9.99707 11.2402 9.9444 11.1464 9.85063C11.0527 9.75686 11 9.62968 11 9.49707H10C10 9.8949 10.158 10.2764 10.4393 10.5577C10.7206 10.839 11.1022 10.9971 11.5 10.9971V9.99707ZM12 9.49707C12 9.62968 11.9473 9.75686 11.8536 9.85063C11.7598 9.9444 11.6326 9.99707 11.5 9.99707V10.9971C11.8978 10.9971 12.2794 10.839 12.5607 10.5577C12.842 10.2764 13 9.8949 13 9.49707H12ZM11.5 6.99707C11.6326 6.99707 11.7598 7.04975 11.8536 7.14352C11.9473 7.23729 12 7.36447 12 7.49707H13C13 7.09925 12.842 6.71772 12.5607 6.43641C12.2794 6.15511 11.8978 5.99707 11.5 5.99707V6.99707ZM11.5 5.99707C11.1022 5.99707 10.7206 6.15511 10.4393 6.43641C10.158 6.71772 10 7.09925 10 7.49707H11C11 7.36447 11.0527 7.23729 11.1464 7.14352C11.2402 7.04975 11.3674 6.99707 11.5 6.99707V5.99707ZM7.5 14.9971C5.77609 14.9971 4.12279 14.3123 2.90381 13.0933C1.68482 11.8743 1 10.221 1 8.49707H0C0 10.4862 0.790176 12.3939 2.1967 13.8004C3.60322 15.2069 5.51088 15.9971 7.5 15.9971V14.9971ZM14 8.49707C14 9.35067 13.8319 10.1959 13.5052 10.9845C13.1786 11.7731 12.6998 12.4897 12.0962 13.0933C11.4926 13.6968 10.7761 14.1756 9.98744 14.5023C9.19883 14.8289 8.35359 14.9971 7.5 14.9971V15.9971C9.48912 15.9971 11.3968 15.2069 12.8033 13.8004C14.2098 12.3939 15 10.4862 15 8.49707H14ZM7.5 0.997074C5.51088 0.997074 3.60322 1.78725 2.1967 3.19377C0.790176 4.6003 0 6.50795 0 8.49707H1C1 6.77317 1.68482 5.11987 2.90381 3.90088C4.12279 2.68189 5.77609 1.99707 7.5 1.99707V0.997074ZM13.5 3.99707C13.6326 3.99707 13.7598 4.04975 13.8536 4.14352C13.9473 4.23729 14 4.36447 14 4.49707H15C15 4.09925 14.842 3.71772 14.5607 3.43641C14.2794 3.15511 13.8978 2.99707 13.5 2.99707V3.99707ZM13.5 4.99707C13.3674 4.99707 13.2402 4.9444 13.1464 4.85063C13.0527 4.75686 13 4.62968 13 4.49707H12C12 4.8949 12.158 5.27643 12.4393 5.55773C12.7206 5.83904 13.1022 5.99707 13.5 5.99707V4.99707ZM13 4.49707C13 4.37407 13.044 4.26207 13.118 4.17407L12.355 3.52807C12.134 3.78907 12 4.12807 12 4.49707H13ZM13.118 4.17407C13.1649 4.11846 13.2234 4.0738 13.2894 4.04322C13.3554 4.01264 13.4273 3.99689 13.5 3.99707V2.99707C13.04 2.99707 12.629 3.20407 12.355 3.52807L13.118 4.17407ZM7.5 1.99707C9.434 1.99707 11.171 2.84107 12.362 4.18307L13.11 3.51907C12.407 2.72521 11.5433 2.08982 10.5761 1.65502C9.60894 1.22023 8.5604 0.995959 7.5 0.997074V1.99707ZM13.354 5.66707C13.768 6.52307 14 7.48207 14 8.49707H15C15 7.32707 14.732 6.22007 14.254 5.23207L13.354 5.66707ZM14 4.49707C14.0001 4.60323 13.9665 4.70667 13.9039 4.79243C13.8414 4.87818 13.7531 4.9418 13.652 4.97407L13.956 5.92607C14.2591 5.82937 14.5235 5.63881 14.7112 5.38194C14.8989 5.12507 15 4.81519 15 4.49707H14ZM13.652 4.97407C13.6028 4.98953 13.5515 4.99729 13.5 4.99707V5.99707C13.6547 5.9974 13.8085 5.97278 13.956 5.92607L13.652 4.97407Z" fill="#0747A6"/>
</svg>
