<svg width="13" height="15" viewBox="0 0 13 15" fill="none" xmlns="http://www.w3.org/2000/svg">
<path d="M8 8.49707H8.9375V10.2596L10.4625 11.1408L9.99375 11.9533L8 10.8033V8.49707ZM10.5 5.37207H1.75V12.2471H4.66875C4.4 11.6783 4.25 11.0408 4.25 10.3721C4.25 9.21175 4.71094 8.09895 5.53141 7.27848C6.35188 6.45801 7.46468 5.99707 8.625 5.99707C9.29375 5.99707 9.93125 6.14707 10.5 6.41582V5.37207ZM1.75 13.4971C1.41848 13.4971 1.10054 13.3654 0.866116 13.131C0.631696 12.8965 0.5 12.5786 0.5 12.2471V3.49707C0.5 2.80332 1.05625 2.24707 1.75 2.24707H2.375V0.99707H3.625V2.24707H8.625V0.99707H9.875V2.24707H10.5C10.8315 2.24707 11.1495 2.37877 11.3839 2.61319C11.6183 2.84761 11.75 3.16555 11.75 3.49707V7.30957C12.525 8.09707 13 9.17832 13 10.3721C13 11.5324 12.5391 12.6452 11.7186 13.4657C10.8981 14.2861 9.78532 14.7471 8.625 14.7471C7.43125 14.7471 6.35 14.2721 5.5625 13.4971H1.75ZM8.625 7.34082C7.82106 7.34082 7.05005 7.66018 6.48158 8.22865C5.91311 8.79712 5.59375 9.56813 5.59375 10.3721C5.59375 12.0471 6.95 13.4033 8.625 13.4033C9.02307 13.4033 9.41724 13.3249 9.78501 13.1726C10.1528 13.0202 10.4869 12.797 10.7684 12.5155C11.0499 12.234 11.2732 11.8998 11.4255 11.5321C11.5778 11.1643 11.6562 10.7701 11.6562 10.3721C11.6562 8.69707 10.3 7.34082 8.625 7.34082Z" fill="white"/>
</svg>
